<svg width="51" height="58" viewBox="0 0 51 58" fill="none" xmlns="http://www.w3.org/2000/svg">
<g filter="url(#filter0_d_1_269)">
<path fill-rule="evenodd" clip-rule="evenodd" d="M29 50C41.1503 50 51 40.1503 51 28C51 15.8497 41.1503 6 29 6C16.8497 6 7 15.8497 7 28C7 40.1503 16.8497 50 29 50Z" fill="white"/>
</g>
<g clip-path="url(#clip0_1_269)">
<path d="M26.29 22.71C25.9 23.1 25.9 23.73 26.29 24.12L30.17 28L26.29 31.88C25.9 32.27 25.9 32.9 26.29 33.29C26.68 33.68 27.31 33.68 27.7 33.29L32.29 28.7C32.68 28.31 32.68 27.68 32.29 27.29L27.7 22.7C27.32 22.32 26.68 22.32 26.29 22.71Z" fill="#1A1A1A"/>
</g>
<defs>
<filter id="filter0_d_1_269" x="0" y="0" width="58" height="58" filterUnits="userSpaceOnUse" color-interpolation-filters="sRGB">
<feFlood flood-opacity="0" result="BackgroundImageFix"/>
<feColorMatrix in="SourceAlpha" type="matrix" values="0 0 0 0 0 0 0 0 0 0 0 0 0 0 0 0 0 0 127 0" result="hardAlpha"/>
<feOffset dy="1"/>
<feGaussianBlur stdDeviation="3.5"/>
<feColorMatrix type="matrix" values="0 0 0 0 0 0 0 0 0 0 0 0 0 0 0 0 0 0 0.09 0"/>
<feBlend mode="normal" in2="BackgroundImageFix" result="effect1_dropShadow_1_269"/>
<feBlend mode="normal" in="SourceGraphic" in2="effect1_dropShadow_1_269" result="shape"/>
</filter>
<clipPath id="clip0_1_269">
<rect width="24" height="24" fill="white" transform="translate(17 16)"/>
</clipPath>
</defs>
</svg>
